<svg id="Layer_1" data-name="Layer 1" xmlns="http://www.w3.org/2000/svg" viewBox="0 0 440.57 199.97"><defs><style>.cls-1{fill:#231f20;}</style></defs><path class="cls-1" d="M35.28,95.88,57.36,32.16,78.12,95.88h1L98.4,31.44C102.84,16.68,107,8.76,112.67,7.2V6.48H92V7.2c8.28,1.56,8.4,9,4.08,23.52L86,64.8,71.28,18.6c-2.16-6.84,0-10.92,7.08-11.4V6.48H43.44V7.2c4.68.48,7.44,4.92,10.56,14.64l2.16,6.84L43.08,66.84,28.2,18.6c-2-6.72.12-10.92,6.6-11.4V6.48H0V7.2c5,.48,7.92,4.92,10.92,14.64l23.4,74Z"/><path class="cls-1" d="M125.76,21.6a9.54,9.54,0,1,0-9.6-9.6A9.53,9.53,0,0,0,125.76,21.6Z"/><path class="cls-1" d="M134.88,29.76h-.48L112,35v.72c4.08,1.44,6.12,3.6,6.12,11.28V81.36c0,7.68-.36,11.76-5.28,11.76v.72h27.36v-.72c-4.92,0-5.28-4.08-5.28-11.76Z"/><path class="cls-1" d="M152.16,78.36c0,12,5.76,16.92,15.48,16.92,7.44,0,15.48-4.8,21.24-12.12l-.72-.48c-3.12,2.52-7.2,4.8-10.8,4.8-5.4,0-8.4-3.12-8.4-9.36V36.36h27.48v45c0,7.68-.36,11.76-5.28,11.76v.72h27.36v-.72c-4.92,0-5.28-4.08-5.28-11.76V42.24a23.35,23.35,0,0,1,11.39-3.6c7.8,0,9.25,5.64,9.25,13.92v28.8c0,7.68-.37,11.76-5.29,11.76v.72H256v-.72c-4.92,0-5.28-4.08-5.28-11.76V48.24c0-12-5.28-18.72-15.6-18.72-8.15,0-15.83,5.52-21.83,11.52V0h-.48L190.32,4.32V5c4.08,1.44,6.12,3.6,6.12,11.28V31H169V13.08h-.72c-5.88,11.76-12.12,16.8-20.64,20.76l-1.68.84v1.68h6.24Z"/><path class="cls-1" d="M188.33,168.06c-3.12-6-6.24-10.44-9.72-12.48v-.24c11.28-2.88,19.32-10.44,19.32-22,0-13.92-10.2-22.43-30.48-22.43H131v.72c8.16,0,8.64,6,8.64,14.87V182.7c0,8.88-.48,14.88-8.64,14.88v.72h35.28v-.72c-8.16,0-8.88-6-8.88-14.88v-26h2.88c3.84,0,5.16,1.08,7.08,5.16,14.64,34,16.8,37,26.64,37,4.2,0,11.64-.24,14-.48v-.72C203.09,196,200.93,191.94,188.33,168.06Zm-24-13.32h-7V117.18c0-2.87,1.68-4.31,4.56-4.31h2.52c10.56,0,15.36,9,15.36,21.83C179.81,147.9,174.29,154.74,164.33,154.74Z"/><path class="cls-1" d="M258.41,192.18c-3.72,0-3.72-3.72-3.72-8.64V155.1c0-13.08-7.2-21.12-19.92-21.12a26.79,26.79,0,0,0-25.92,19.08l.72.36c3.36-6.48,9.36-11.88,17-11.88,11.64,0,11.64,12.48,11.64,15.84v7.44l-10.92,3c-14.16,4-20.76,10.08-20.76,19,0,7.8,5.76,13,14.16,13,7,0,14-4.2,18.24-10,.36,4.32,2.16,10,10.08,10s13-6,14.88-9.72l-.72-.48A6.39,6.39,0,0,1,258.41,192.18Zm-20.16-3.36c-2.28,2-5.4,3.6-8,3.6-4.44,0-7.92-3.84-7.92-10.32,0-7.08,2.28-10.56,11-13.8l4.92-1.8Z"/><path class="cls-1" d="M324.65,185.82V152.7c0-12-5.28-18.72-15.6-18.72-8.16,0-15.84,5.52-21.84,11.52V134.22h-.48l-22.44,5.28v.72c4.08,1.44,6.12,3.6,6.12,11.28v34.32c0,7.68-.36,11.76-5.28,11.76v.72h27.36v-.72c-4.92,0-5.28-4.08-5.28-11.76V146.7a23.36,23.36,0,0,1,11.4-3.6c7.8,0,9.24,5.64,9.24,13.92v28.8c0,7.68-.36,11.76-5.28,11.76v.72h27.36v-.72C325,197.58,324.65,193.5,324.65,185.82Z"/><path class="cls-1" d="M370.37,155c10.8-10.32,20.76-18.12,25-18.84v-.72h-24v.72a4.87,4.87,0,0,1,4.8,5c0,4-2.64,8-7.68,13l-10.8,10.56c14.28,28.2,16.92,34.08,27.48,34.08A109.82,109.82,0,0,0,397,198.3v-.72C394,196.62,386.21,184.38,370.37,155Z"/><path class="cls-1" d="M355.13,185.82v-80.3a30.74,30.74,0,0,1,1.37-5.82,53.61,53.61,0,0,1-8.83,4.5,74.1,74.1,0,0,1-9.21,3,84.55,84.55,0,0,1-18.82,2.6q-4.74.08-9.43-.25c-3.14-.29-6.26-.57-9.37-1.13s-6.19-1.14-9.26-1.88L282,104.08a124.85,124.85,0,0,0-20.44-3.33c-1.74-.14-3.51-.2-5.26-.25s-3.53,0-5.31.1A65.86,65.86,0,0,0,240.34,102,49.36,49.36,0,0,0,230,105.42a40.87,40.87,0,0,0-9.19,5.91,41.82,41.82,0,0,0-7.08,7.9,61,61,0,0,0-5.06,8.91c2.65-2.14,5.22-4.31,7.83-6.27a51.35,51.35,0,0,1,8-5,46.38,46.38,0,0,1,17.42-4.59c12.14-.89,24.78,1.21,37.37,3.79l4.74,1c1.66.35,3.39.74,5.09,1.06a103.82,103.82,0,0,0,10.4,1.37,85.2,85.2,0,0,0,21-.78,71.29,71.29,0,0,0,16.77-4.94,18,18,0,0,1,1.05,7v65c0,7.68-.36,11.76-5.28,11.76v.72h27.36v-.72C355.49,197.58,355.13,193.5,355.13,185.82Z"/><path class="cls-1" d="M423.89,159.18l-4.68-2.52c-4.8-2.52-10.32-5.4-10.32-11.88,0-5.28,3.72-9.12,10-9.12,8.16,0,14,7.2,18,15.84h.72V137a54.41,54.41,0,0,0-17.16-3c-12.36,0-22.2,7.08-22.2,19.44,0,11.4,8.28,15.84,13.44,18.6l4.68,2.52c8.4,4.44,13.56,7,13.56,13.44,0,6.84-5.52,10.08-11.88,10.08-10.08,0-15.48-9-20.52-19h-.72l1.08,17.4c4.56,2,12,3.24,17.88,3.24,14.76,0,24.84-7.92,24.84-20.64C440.57,167.46,432.05,163.5,423.89,159.18Z"/><path class="cls-1" d="M39.47,179.15c-3.15,0-4.9-1.82-4.9-5.46V149.33h9.87l1.19-3.15H34.57V135.75h-.42c-3.43,6.86-7.07,9.8-12,12.11l-1,.49v1h3.64v24.5c0,7,3.36,9.87,9,9.87,4.34,0,9-2.8,12.39-7.07l-.42-.28C44,177.82,41.57,179.15,39.47,179.15Z"/><path class="cls-1" d="M49.14,173.06v.42h16v-.42c-2.87,0-3.08-2.38-3.08-6.86V143.38a13.62,13.62,0,0,1,6.65-2.1c4.56,0,5.4,3.29,5.4,8.12v16.8c0,4.48-.21,6.86-3.08,6.86v.42H87v-.42c-2.87,0-3.08-2.38-3.08-6.86V146.88c0-7-3.08-10.92-9.1-10.92-4.77,0-9.25,3.22-12.75,6.72V118.74h-.28l-13.09,2.52v.42c2.38.84,3.57,2.1,3.57,6.58V166.2C52.22,170.68,52,173.06,49.14,173.06Z"/><path class="cls-1" d="M110.85,157.35c-7.56,0-10.71-7.14-10.71-18v-.7h21c.42-9-4.76-14.7-13.3-14.7-10.36,0-17.64,8.68-17.64,19.81,0,10,5.46,18.55,16,18.55,7.84,0,12.18-4.83,15-9.8l-.42-.28A12,12,0,0,1,110.85,157.35Zm-3.29-32.41c4.41,0,5.46,4.9,4.9,12.6H100.21C100.49,131.1,102.66,124.94,107.56,124.94Z"/><polygon class="cls-1" points="116.84 198.71 116.84 177.78 62.19 199.97 116.84 198.71"/></svg>